<?xml version="1.0" encoding="UTF-8"?>
<svg width="166px" height="102px" viewBox="0 0 166 102" version="1.1" xmlns="http://www.w3.org/2000/svg" xmlns:xlink="http://www.w3.org/1999/xlink">
    <!-- Generator: Sketch 64 (93537) - https://sketch.com -->
    <title>Group 8</title>
    <desc>Created with Sketch.</desc>
    <defs>
        <rect id="path-1" x="0" y="0" width="166" height="102"></rect>
        <rect id="path-3" x="0.151997407" y="0.099269103" width="116.129516" height="165.881496"></rect>
        <linearGradient x1="50.003876%" y1="316.634828%" x2="50.003876%" y2="76.1764706%" id="linearGradient-5">
            <stop stop-color="#190096" offset="0%"></stop>
            <stop stop-color="#932257" offset="52%"></stop>
            <stop stop-color="#C41C6C" offset="100%"></stop>
        </linearGradient>
        <linearGradient x1="50.0056657%" y1="276.882762%" x2="50.0056657%" y2="71.7819175%" id="linearGradient-6">
            <stop stop-color="#190096" offset="0%"></stop>
            <stop stop-color="#932257" offset="52%"></stop>
            <stop stop-color="#C41C6C" offset="100%"></stop>
        </linearGradient>
        <linearGradient x1="50.0234664%" y1="247.256277%" x2="50.0234664%" y2="68.5264069%" id="linearGradient-7">
            <stop stop-color="#190096" offset="0%"></stop>
            <stop stop-color="#932257" offset="52%"></stop>
            <stop stop-color="#C41C6C" offset="100%"></stop>
        </linearGradient>
        <linearGradient x1="49.9861364%" y1="224.344074%" x2="49.9861364%" y2="65.9754507%" id="linearGradient-8">
            <stop stop-color="#190096" offset="0%"></stop>
            <stop stop-color="#932257" offset="52%"></stop>
            <stop stop-color="#C41C6C" offset="100%"></stop>
        </linearGradient>
        <linearGradient x1="49.9859155%" y1="206.187737%" x2="49.9859155%" y2="63.9669308%" id="linearGradient-9">
            <stop stop-color="#190096" offset="0%"></stop>
            <stop stop-color="#932257" offset="52%"></stop>
            <stop stop-color="#C41C6C" offset="100%"></stop>
        </linearGradient>
        <linearGradient x1="50.0035672%" y1="191.3325%" x2="50.0035672%" y2="62.3109375%" id="linearGradient-10">
            <stop stop-color="#190096" offset="0%"></stop>
            <stop stop-color="#932257" offset="52%"></stop>
            <stop stop-color="#C41C6C" offset="100%"></stop>
        </linearGradient>
        <linearGradient x1="50.0032644%" y1="179.051201%" x2="50.0032644%" y2="60.9545195%" id="linearGradient-11">
            <stop stop-color="#190096" offset="0%"></stop>
            <stop stop-color="#932257" offset="52%"></stop>
            <stop stop-color="#C41C6C" offset="100%"></stop>
        </linearGradient>
        <linearGradient x1="49.9892204%" y1="168.6875%" x2="49.9892204%" y2="59.808808%" id="linearGradient-12">
            <stop stop-color="#190096" offset="0%"></stop>
            <stop stop-color="#932257" offset="52%"></stop>
            <stop stop-color="#C41C6C" offset="100%"></stop>
        </linearGradient>
        <linearGradient x1="50.014422%" y1="159.785767%" x2="50.014422%" y2="58.8151137%" id="linearGradient-13">
            <stop stop-color="#190096" offset="0%"></stop>
            <stop stop-color="#932257" offset="52%"></stop>
            <stop stop-color="#C41C6C" offset="100%"></stop>
        </linearGradient>
        <linearGradient x1="50.0015178%" y1="152.123831%" x2="50.0015178%" y2="57.9694413%" id="linearGradient-14">
            <stop stop-color="#190096" offset="0%"></stop>
            <stop stop-color="#932257" offset="52%"></stop>
            <stop stop-color="#C41C6C" offset="100%"></stop>
        </linearGradient>
        <linearGradient x1="50.0123908%" y1="145.421615%" x2="50.0123908%" y2="57.2396412%" id="linearGradient-15">
            <stop stop-color="#190096" offset="0%"></stop>
            <stop stop-color="#932257" offset="52%"></stop>
            <stop stop-color="#DB227A" offset="100%"></stop>
        </linearGradient>
        <linearGradient x1="49.9925501%" y1="139.5001%" x2="49.9925501%" y2="56.5774252%" id="linearGradient-16">
            <stop stop-color="#190096" offset="0%"></stop>
            <stop stop-color="#932257" offset="52%"></stop>
            <stop stop-color="#DB227A" offset="100%"></stop>
        </linearGradient>
        <linearGradient x1="49.9832372%" y1="134.269194%" x2="49.9832372%" y2="55.9998104%" id="linearGradient-17">
            <stop stop-color="#190096" offset="0%"></stop>
            <stop stop-color="#932257" offset="52%"></stop>
            <stop stop-color="#DB227A" offset="100%"></stop>
        </linearGradient>
        <linearGradient x1="50.0020485%" y1="129.594328%" x2="50.0020485%" y2="55.4835757%" id="linearGradient-18">
            <stop stop-color="#190096" offset="0%"></stop>
            <stop stop-color="#932257" offset="52%"></stop>
            <stop stop-color="#DB227A" offset="100%"></stop>
        </linearGradient>
        <linearGradient x1="50.0011345%" y1="125.369632%" x2="50.0011345%" y2="55.0098841%" id="linearGradient-19">
            <stop stop-color="#190096" offset="0%"></stop>
            <stop stop-color="#932257" offset="52%"></stop>
            <stop stop-color="#DB227A" offset="100%"></stop>
        </linearGradient>
        <linearGradient x1="50.0018513%" y1="121.568532%" x2="50.0018513%" y2="54.5983779%" id="linearGradient-20">
            <stop stop-color="#190096" offset="0%"></stop>
            <stop stop-color="#932257" offset="52%"></stop>
            <stop stop-color="#DB227A" offset="100%"></stop>
        </linearGradient>
        <linearGradient x1="50.0010303%" y1="118.119331%" x2="50.0010303%" y2="54.2174586%" id="linearGradient-21">
            <stop stop-color="#190096" offset="0%"></stop>
            <stop stop-color="#932257" offset="52%"></stop>
            <stop stop-color="#DB227A" offset="100%"></stop>
        </linearGradient>
        <linearGradient x1="50.0009851%" y1="114.957822%" x2="50.0009851%" y2="53.8551132%" id="linearGradient-22">
            <stop stop-color="#190096" offset="0%"></stop>
            <stop stop-color="#932257" offset="52%"></stop>
            <stop stop-color="#DB227A" offset="100%"></stop>
        </linearGradient>
        <linearGradient x1="50.0009437%" y1="112.074001%" x2="50.0009437%" y2="53.5438049%" id="linearGradient-23">
            <stop stop-color="#190096" offset="0%"></stop>
            <stop stop-color="#932257" offset="52%"></stop>
            <stop stop-color="#DB227A" offset="100%"></stop>
        </linearGradient>
        <linearGradient x1="50.0009056%" y1="109.424218%" x2="50.0009056%" y2="53.2514286%" id="linearGradient-24">
            <stop stop-color="#190096" offset="0%"></stop>
            <stop stop-color="#932257" offset="52%"></stop>
            <stop stop-color="#FF411F" offset="100%"></stop>
        </linearGradient>
        <linearGradient x1="49.9952742%" y1="106.979859%" x2="49.9952742%" y2="52.9816898%" id="linearGradient-25">
            <stop stop-color="#190096" offset="0%"></stop>
            <stop stop-color="#932257" offset="52%"></stop>
            <stop stop-color="#FF411F" offset="100%"></stop>
        </linearGradient>
        <linearGradient x1="50.0008381%" y1="104.704646%" x2="50.0008381%" y2="52.7255445%" id="linearGradient-26">
            <stop stop-color="#190096" offset="0%"></stop>
            <stop stop-color="#932257" offset="52%"></stop>
            <stop stop-color="#FF411F" offset="100%"></stop>
        </linearGradient>
        <linearGradient x1="50.0008079%" y1="102.60534%" x2="50.0008079%" y2="52.4996359%" id="linearGradient-27">
            <stop stop-color="#190096" offset="0%"></stop>
            <stop stop-color="#932257" offset="52%"></stop>
            <stop stop-color="#FF411F" offset="100%"></stop>
        </linearGradient>
        <linearGradient x1="49.99521%" y1="100.640581%" x2="49.99521%" y2="52.2726101%" id="linearGradient-28">
            <stop stop-color="#190096" offset="0%"></stop>
            <stop stop-color="#932257" offset="52%"></stop>
            <stop stop-color="#FF411F" offset="100%"></stop>
        </linearGradient>
        <linearGradient x1="50.001292%" y1="98.8189743%" x2="50.001292%" y2="52.0772105%" id="linearGradient-29">
            <stop stop-color="#190096" offset="0%"></stop>
            <stop stop-color="#932257" offset="52%"></stop>
            <stop stop-color="#FF411F" offset="100%"></stop>
        </linearGradient>
        <linearGradient x1="50.00125%" y1="97.1155658%" x2="50.00125%" y2="51.8893636%" id="linearGradient-30">
            <stop stop-color="#190096" offset="0%"></stop>
            <stop stop-color="#932257" offset="52%"></stop>
            <stop stop-color="#FF411F" offset="100%"></stop>
        </linearGradient>
        <linearGradient x1="50.0007062%" y1="95.5186757%" x2="50.0007062%" y2="51.7081919%" id="linearGradient-31">
            <stop stop-color="#190096" offset="0%"></stop>
            <stop stop-color="#932257" offset="52%"></stop>
            <stop stop-color="#FF411F" offset="100%"></stop>
        </linearGradient>
        <linearGradient x1="49.9962829%" y1="94.0096698%" x2="49.9962829%" y2="51.5377019%" id="linearGradient-32">
            <stop stop-color="#190096" offset="0%"></stop>
            <stop stop-color="#932257" offset="52%"></stop>
            <stop stop-color="#FF411F" offset="100%"></stop>
        </linearGradient>
        <linearGradient x1="50.0006645%" y1="92.6008584%" x2="50.0006645%" y2="51.3922547%" id="linearGradient-33">
            <stop stop-color="#190096" offset="0%"></stop>
            <stop stop-color="#932257" offset="52%"></stop>
            <stop stop-color="#FF411F" offset="100%"></stop>
        </linearGradient>
    </defs>
    <g id="Symbols" stroke="none" stroke-width="1" fill="none" fill-rule="evenodd">
        <g id="bg/tarjeta/miniatura/morada">
            <g id="Group-8">
                <mask id="mask-2" fill="white">
                    <use xlink:href="#path-1"></use>
                </mask>
                <g id="Rectangle-Copy-5"></g>
                <g id="Group-7" mask="url(#mask-2)">
                    <g transform="translate(83.000000, 50.738710) rotate(-90.000000) translate(-83.000000, -50.738710) translate(24.500000, -32.261290)">
                        <mask id="mask-4" fill="white">
                            <use xlink:href="#path-3"></use>
                        </mask>
                        <use id="Rectangle" stroke="none" fill="#130071" fill-rule="nonzero" xlink:href="#path-3"></use>
                        <g id="Group-6" stroke="none" stroke-width="1" fill="none" fill-rule="evenodd" mask="url(#mask-4)">
                            <g transform="translate(-160.700267, -215.284823)" fill-rule="nonzero" id="Shape">
                                <path d="M181.384828,203.746202 L195.724371,159.646912 L242.109675,159.646912 L256.449218,203.746202 L218.917023,231.012116 L181.384828,203.746202 Z M218.917023,196.805032 L223.198104,193.68774 L221.577112,188.658509 L216.298498,188.658509 L214.635942,193.68774 L218.917023,196.805032 Z M233.963152,171.035419 L233.963152,171.035419 L203.870894,171.035419 L203.870894,171.035419 L233.963152,171.035419 Z M238.119541,165.133346 L199.756068,165.133346 L187.868795,201.626444 L187.910359,201.668007 L199.714504,165.341165 L238.077977,165.341165 L249.882123,201.668007 L249.923687,201.626444 L238.119541,165.133346 Z" fill="url(#linearGradient-5)"></path>
                                <path d="M174.900861,205.658141 L191.692673,153.952659 L246.099809,153.952659 L262.933185,205.658141 L218.917023,237.620775 L174.900861,205.658141 Z M242.234367,159.272837 L195.599679,159.272837 L181.177008,203.62151 L218.917023,231.05368 L256.657038,203.62151 L242.234367,159.272837 Z" fill="url(#linearGradient-6)"></path>
                                <path d="M168.416893,207.57008 L187.70254,148.216841 L250.089942,148.216841 L269.375589,207.57008 L218.917023,244.229434 L168.416893,207.57008 Z M246.390756,153.370764 L191.44329,153.370764 L174.485222,205.616577 L218.917023,237.911722 L263.348824,205.616577 L246.390756,153.370764 Z" fill="url(#linearGradient-7)"></path>
                                <path d="M161.97449,209.482019 L183.75397,142.522588 L254.12164,142.522588 L275.90112,209.482019 L218.917023,250.879656 L161.97449,209.482019 Z M250.505581,147.510255 L187.328464,147.510255 L167.793435,207.611644 L218.917023,244.769764 L270.040611,207.611644 L250.505581,147.510255 Z" fill="url(#linearGradient-8)"></path>
                                <path d="M155.490523,211.393958 L179.722272,136.828335 L258.153338,136.828335 L282.385087,211.393958 L218.917023,257.488315 L155.490523,211.393958 Z M254.661971,141.608182 L183.172075,141.608182 L161.101648,209.565147 L218.917023,251.586243 L276.732398,209.565147 L254.661971,141.608182 Z" fill="url(#linearGradient-9)"></path>
                                <path d="M149.006555,213.305897 L175.732138,131.134082 L262.143471,131.134082 L288.82749,213.305897 L218.917023,264.138538 L149.006555,213.305897 Z M258.776796,135.747674 L179.05725,135.747674 L154.409861,211.560214 L218.917023,258.402721 L283.424184,211.560214 L258.776796,135.747674 Z" fill="url(#linearGradient-10)"></path>
                                <path d="M142.522588,215.2594 L171.700441,125.439828 L266.133605,125.439828 L295.311458,215.2594 L218.917023,270.747197 L142.522588,215.2594 Z M262.933185,129.845601 L174.900861,129.845601 L147.718075,213.555281 L218.917023,265.302327 L290.115971,213.555281 L262.933185,129.845601 Z" fill="url(#linearGradient-11)"></path>
                                <path d="M136.038621,217.171339 L167.710307,119.745575 L270.165303,119.745575 L301.836989,217.171339 L218.917023,277.355856 L136.038621,217.171339 Z M267.048011,123.985092 L170.786035,123.985092 L141.026288,215.550348 L218.917023,272.16037 L296.807758,215.550348 L267.048011,123.985092 Z" fill="url(#linearGradient-12)"></path>
                                <path d="M129.554654,219.083279 L163.67861,114.051322 L274.113872,114.051322 L308.237828,219.083279 L218.875459,284.006079 L129.554654,219.083279 Z M271.2044,118.083019 L166.629646,118.083019 L134.334501,217.503851 L218.917023,278.976848 L303.499545,217.503851 L271.2044,118.083019 Z" fill="url(#linearGradient-13)"></path>
                                <path d="M123.070686,220.995218 L159.688476,108.357068 L278.14557,108.357068 L314.76336,220.995218 L218.917023,290.614738 L123.070686,220.995218 Z M275.319225,112.22251 L162.514821,112.22251 L127.642715,219.498917 L218.917023,285.793326 L310.191331,219.498917 L275.319225,112.22251 Z" fill="url(#linearGradient-14)"></path>
                                <path d="M116.586719,222.907157 L155.656778,102.621251 L282.135704,102.621251 L321.205763,222.907157 L218.917023,297.223397 L116.586719,222.907157 Z M279.475615,106.320438 L158.358431,106.320438 L120.950928,221.493984 L218.917023,292.651369 L316.883118,221.493984 L279.475615,106.320438 Z" fill="url(#linearGradient-15)"></path>
                                <path d="M110.144316,224.819096 L151.708208,96.9269978 L286.167401,96.9269978 L327.731294,224.819096 L218.917023,303.87362 L110.144316,224.819096 Z M283.59044,100.459929 L154.243606,100.459929 L114.259141,223.489051 L218.917023,299.509411 L323.574905,223.489051 L283.59044,100.459929 Z" fill="url(#linearGradient-16)"></path>
                                <path d="M103.660348,226.731035 L147.718075,91.2327445 L290.199099,91.2327445 L334.256825,226.731035 L218.917023,310.482279 L103.660348,226.731035 Z M287.746829,94.5578559 L150.087217,94.5578559 L107.567354,225.484118 L218.917023,306.409017 L330.266692,225.484118 L287.746829,94.5578559 Z" fill="url(#linearGradient-17)"></path>
                                <path d="M97.1763812,228.642974 L143.686377,85.5384912 L294.189233,85.5384912 L340.657665,228.642974 L218.917023,317.090938 L97.1763812,228.642974 Z M291.861655,88.6973471 L145.972391,88.6973471 L100.875568,227.437621 L218.917023,313.225496 L336.958478,227.437621 L291.861655,88.6973471 Z" fill="url(#linearGradient-18)"></path>
                                <path d="M91.5652557,231.178371 L90.6924139,230.554913 L139.696243,79.8442379 L298.179366,79.8442379 L347.141632,230.554913 L218.917023,323.74116 L91.5652557,231.178371 Z M296.018044,82.7952743 L141.816002,82.7952743 L94.1837809,229.432688 L218.917023,320.041974 L343.650265,229.432688 L296.018044,82.7952743 Z" fill="url(#linearGradient-19)"></path>
                                <path d="M84.2084466,232.466852 L135.664546,74.1084207 L302.1695,74.1084207 L353.625599,232.466852 L218.917023,330.349819 L84.2084466,232.466852 Z M300.132869,76.9347654 L137.701177,76.9347654 L87.4919942,231.427755 L218.917023,326.94158 L350.342052,231.427755 L300.132869,76.9347654 Z" fill="url(#linearGradient-20)"></path>
                                <path d="M77.7244794,234.378791 L131.674412,68.4141674 L306.201198,68.4141674 L360.109566,234.378791 L218.917023,336.958478 L77.7244794,234.378791 Z M304.289259,71.0326927 L133.544787,71.0326927 L80.8002074,233.422821 L218.917023,333.758059 L357.075402,233.422821 L304.289259,71.0326927 Z" fill="url(#linearGradient-21)"></path>
                                <path d="M71.2405121,236.332294 L127.642715,62.761478 L310.149767,62.761478 L366.593534,236.332294 L218.917023,343.608701 L71.2405121,236.332294 Z M308.404084,65.1721838 L129.429962,65.1721838 L74.1084207,235.376324 L218.917023,340.574537 L363.725625,235.376324 L308.404084,65.1721838 Z" fill="url(#linearGradient-22)"></path>
                                <path d="M65.4215671,238.701436 L64.7565449,238.244233 L123.652581,57.0256608 L314.181465,57.0256608 L373.077501,238.244233 L218.917023,350.21736 L65.4215671,238.701436 Z M312.560473,59.270111 L125.273573,59.270111 L67.416634,237.371391 L218.917023,347.432579 L370.458976,237.371391 L312.560473,59.270111 Z" fill="url(#linearGradient-23)"></path>
                                <path d="M58.2725776,240.156172 L119.620883,51.3314075 L318.130035,51.3314075 L379.561468,240.156172 L218.917023,356.826019 L58.2725776,240.156172 Z M316.675299,53.4096021 L121.158747,53.4096021 L60.7248473,239.366458 L218.917023,354.290622 L377.150762,239.366458 L316.675299,53.4096021 Z" fill="url(#linearGradient-24)"></path>
                                <path d="M52.3705048,242.48375 L51.8301742,242.068111 L115.464494,46.3021765 L115.672313,45.6371542 L322.203296,45.6371542 L386.045436,242.068111 L219.457354,363.060603 L218.917023,363.434678 L52.3705048,242.48375 Z M383.842549,241.361525 L320.831688,47.5075294 L117.002358,47.5075294 L54.0330605,241.361525 L218.917023,361.148664 L383.842549,241.361525 Z" fill="url(#linearGradient-25)"></path>
                                <path d="M45.346207,243.98005 L111.640616,39.9429009 L326.19343,39.9429009 L392.487839,243.98005 L218.917023,370.084901 L45.346207,243.98005 Z M324.946513,41.6470205 L112.845969,41.6470205 L47.3412738,243.315028 L218.917023,367.965142 L390.534336,243.315028 L324.946513,41.6470205 Z" fill="url(#linearGradient-26)"></path>
                                <path d="M39.3194425,246.2245 L38.8622397,245.891989 L107.484227,34.7474143 L107.650482,34.2070837 L330.183564,34.2070837 L398.805551,245.351659 L398.971806,245.891989 L218.917023,376.69356 L39.3194425,246.2245 Z M329.102903,35.7449477 L108.731143,35.7449477 L40.6494871,245.310095 L218.958587,374.823185 L397.226123,245.310095 L329.102903,35.7449477 Z" fill="url(#linearGradient-27)"></path>
                                <path d="M32.7523475,248.094876 L32.3782724,247.803928 L103.494093,29.0115971 L103.660348,28.5543943 L334.215261,28.5543943 L405.331082,247.346726 L405.497337,247.803928 L218.917023,383.343783 L32.7523475,248.094876 Z M333.217728,29.842875 L104.574754,29.842875 L33.9161365,247.263598 L218.917023,381.639663 L403.917909,247.305162 L333.217728,29.842875 Z" fill="url(#linearGradient-28)"></path>
                                <path d="M26.2268163,249.965251 L25.8943052,249.715867 L99.5039592,23.234216 L99.6286508,22.8185771 L338.205395,22.8185771 L411.815049,249.341792 L411.939741,249.757431 L219.249534,389.703058 L218.917023,389.952441 L26.2268163,249.965251 Z M410.609696,249.300229 L337.374117,23.9823661 L100.459929,23.9823661 L27.2659136,249.300229 L218.917023,388.539269 L410.609696,249.300229 Z" fill="url(#linearGradient-29)"></path>
                                <path d="M19.7012851,251.835626 L19.4103379,251.627806 L95.5138255,17.4568349 L95.6385171,17.1243238 L342.195529,17.1243238 L418.299016,251.295295 L418.423708,251.627806 L218.917023,396.5611 L19.7012851,251.835626 Z M341.488943,18.0802933 L96.3035394,18.0802933 L20.532563,251.253731 L218.917023,395.355748 L417.301483,251.253731 L341.488943,18.0802933 Z" fill="url(#linearGradient-30)"></path>
                                <path d="M13.175754,253.747565 L12.9263706,253.581309 L91.5652557,11.7210177 L91.6483834,11.4716344 L346.227226,11.4716344 L424.824547,253.290362 L424.907675,253.539746 L219.166406,403.003504 L218.917023,403.169759 L13.175754,253.747565 Z M423.99327,253.248798 L345.645332,12.2197845 L92.188714,12.2197845 L13.8407763,253.248798 L218.917023,402.21379 L423.99327,253.248798 Z" fill="url(#linearGradient-31)"></path>
                                <path d="M6.65022283,255.61794 L6.48396726,255.493249 L87.6582497,5.77738109 L350.258924,5.77738109 L431.391642,255.493249 L219.124842,409.69529 L218.958587,409.819982 L6.65022283,255.61794 Z M430.685056,255.243865 L349.760157,6.35927559 L88.0323248,6.35927559 L7.14898955,255.243865 L218.917023,409.071832 L430.685056,255.243865 Z" fill="url(#linearGradient-32)"></path>
                                <path d="M219.041715,416.345513 L218.917023,416.428641 L0.124691678,257.446751 L1.42108547e-14,257.363624 L83.5849883,0.166255571 L83.6265521,-1.98951966e-13 L354.207494,-1.98951966e-13 L437.792482,257.197368 L437.834046,257.32206 L219.041715,416.345513 Z M353.916546,0.45720282 L83.9174994,0.45720282 L0.45720282,257.238932 L218.917023,415.929874 L437.376843,257.238932 L353.916546,0.45720282 Z" fill="url(#linearGradient-33)"></path>
                            </g>
                        </g>
                    </g>
                </g>
            </g>
        </g>
    </g>
</svg>