<?xml version="1.0" encoding="UTF-8"?>
<svg width="310px" height="13px" viewBox="0 0 310 13" version="1.1" xmlns="http://www.w3.org/2000/svg" xmlns:xlink="http://www.w3.org/1999/xlink">
    <!-- Generator: Sketch 60 (88103) - https://sketch.com -->
    <title>ic/recorte_cuenta</title>
    <desc>Created with Sketch.</desc>
    <g id="ic/recorte_cuenta" stroke="none" stroke-width="1" fill="none" fill-rule="evenodd">
        <polygon id="Path-3-Copy-2" fill="#F4F4F4" fill-rule="nonzero" points="301.382353 0 311 9.34789409 311 13 0 13 0 9.34789409 9.61764706 1.0603938e-14 18.7352941 8.86191795 27.8529412 1.02759811e-14 36.9705882 8.86191795 46.0882353 8.74551587e-15 55.2058824 8.86191795 64.3235294 8.30824007e-15 73.4411765 8.86191795 82.5588235 8.41755902e-15 91.6764706 8.86191795 100.794118 9.83870535e-15 109.911765 8.86191795 119.029412 8.96415376e-15 128.147059 8.86191795 137.264706 8.52687797e-15 146.382353 8.86191795 155.5 7.98028323e-15 164.617647 8.86191795 173.735294 9.62006745e-15 182.852941 8.86191795 191.970588 5.90322321e-15 201.088235 8.86191795 210.205882 1.20250843e-14 219.323529 8.86191795 228.441176 1.22437222e-14 237.558824 8.86191795 246.676471 8.74551587e-15 255.794118 8.86191795 264.911765 7.98028323e-15 274.029412 8.86191795 283.147059 7.98028323e-15 292.264706 8.86191795"></polygon>
    </g>
</svg>