<?xml version="1.0" encoding="UTF-8"?>
<svg width="30px" height="30px" viewBox="0 0 30 30" version="1.1" xmlns="http://www.w3.org/2000/svg" xmlns:xlink="http://www.w3.org/1999/xlink">
    <!-- Generator: Sketch 64 (93537) - https://sketch.com -->
    <title>ic_flecha_pago_siguiente</title>
    <desc>Created with Sketch.</desc>
    <g id="Symbols" stroke="none" stroke-width="1" fill="none" fill-rule="evenodd">
        <g id="ic/flecha/pago/siguiente">
            <g id="Group-6-Copy-2">
                <circle id="Oval" fill="#FFFFFF" cx="15" cy="15" r="14"></circle>
                <path d="M15,0.5 C6.99187113,0.5 0.5,6.99187113 0.5,15 C0.5,23.0081289 6.99187113,29.5 15,29.5 C23.0081289,29.5 29.5,23.0081289 29.5,15 C29.5,6.99187113 23.0081289,0.5 15,0.5 Z M15,1.5 C22.4558441,1.5 28.5,7.54415588 28.5,15 C28.5,22.4558441 22.4558441,28.5 15,28.5 C7.54415588,28.5 1.5,22.4558441 1.5,15 C1.5,7.54415588 7.54415588,1.5 15,1.5 Z" id="Oval" fill="#76B900"></path>
                <path d="M7,9.5 C7.24545989,9.5 7.44960837,9.67687516 7.49194433,9.91012437 L7.5,10 L7.5,19.5 L17,19.5 C17.2454599,19.5 17.4496084,19.6768752 17.4919443,19.9101244 L17.5,20 C17.5,20.2454599 17.3231248,20.4496084 17.0898756,20.4919443 L17,20.5 L7,20.5 C6.75454011,20.5 6.55039163,20.3231248 6.50805567,20.0898756 L6.5,20 L6.5,10 C6.5,9.72385763 6.72385763,9.5 7,9.5 Z" id="Path-4" fill="#76B900" transform="translate(12.000000, 15.000000) scale(-1, 1) rotate(45.000000) translate(-12.000000, -15.000000) "></path>
            </g>
        </g>
    </g>
</svg>