<?xml version="1.0" encoding="UTF-8"?>
<svg width="310px" height="190px" viewBox="0 0 310 190" version="1.1" xmlns="http://www.w3.org/2000/svg" xmlns:xlink="http://www.w3.org/1999/xlink">
    <!-- Generator: Sketch 64 (93537) - https://sketch.com -->
    <title>Group 5</title>
    <desc>Created with Sketch.</desc>
    <defs>
        <linearGradient x1="-1.11022302e-14%" y1="50%" x2="100%" y2="50%" id="linearGradient-1">
            <stop stop-color="#2DB96C" offset="0%"></stop>
            <stop stop-color="#9FD745" offset="100%"></stop>
        </linearGradient>
        <rect id="path-2" x="0" y="0" width="310" height="190" rx="7"></rect>
        <linearGradient x1="-1.11022302e-14%" y1="50%" x2="100%" y2="50%" id="linearGradient-4">
            <stop stop-color="#2DB96C" offset="0%"></stop>
            <stop stop-color="#9FD745" offset="100%"></stop>
        </linearGradient>
        <linearGradient x1="-1.11022302e-14%" y1="50%" x2="73.3767948%" y2="50%" id="linearGradient-5">
            <stop stop-color="#2DB96C" offset="0%"></stop>
            <stop stop-color="#9FD745" offset="100%"></stop>
        </linearGradient>
        <linearGradient x1="-1.11022302e-14%" y1="50%" x2="41.5591385%" y2="50%" id="linearGradient-6">
            <stop stop-color="#2DB96C" offset="0%"></stop>
            <stop stop-color="#9FD745" offset="100%"></stop>
        </linearGradient>
        <linearGradient x1="-1.11022302e-14%" y1="50%" x2="22.7309445%" y2="50%" id="linearGradient-7">
            <stop stop-color="#2DB96C" offset="0%"></stop>
            <stop stop-color="#9FD745" offset="100%"></stop>
        </linearGradient>
    </defs>
    <g id="Web-Responsive-Enrollment" stroke="none" stroke-width="1" fill="none" fill-rule="evenodd">
        <g id="05.2_Registro---Método-de-pago-(complejo-tarjetas)" transform="translate(-565.000000, -531.000000)">
            <g id="Group-2" transform="translate(565.000000, 531.000000)">
                <g id="Group-5">
                    <g id="bg/tarjeta/verde">
                        <g id="Group-11">
                            <mask id="mask-3" fill="white">
                                <use xlink:href="#path-2"></use>
                            </mask>
                            <use id="Rectangle" fill="url(#linearGradient-1)" xlink:href="#path-2"></use>
                            <g id="Group-12" mask="url(#mask-3)">
                                <rect id="Rectangle" fill="url(#linearGradient-4)" x="0" y="0" width="310" height="87"></rect>
                                <rect id="Rectangle-Copy-11" fill="url(#linearGradient-5)" x="0" y="87" width="310" height="53"></rect>
                                <rect id="Rectangle-Copy-12" fill="url(#linearGradient-6)" x="0" y="140" width="310" height="36"></rect>
                                <rect id="Rectangle-Copy-13" fill="url(#linearGradient-7)" x="0" y="176" width="310" height="14"></rect>
                            </g>
                        </g>
                    </g>
                    <g id="selector/on_blanco" transform="translate(278.000000, 8.000000)" fill="#FFFFFF">
                        <path d="M12,0 C18.627417,0 24,5.372583 24,12 C24,18.627417 18.627417,24 12,24 C5.372583,24 0,18.627417 0,12 C0,5.372583 5.372583,0 12,0 Z M17.6,7 L10,14.3076923 L6.4,10.8461538 L5,12.1923077 L10,17 L19,8.34615385 L17.6,7 Z" id="Combined-Shape"></path>
                    </g>
                </g>
            </g>
        </g>
    </g>
</svg>