<?xml version="1.0" encoding="UTF-8"?>
<svg width="248px" height="147px" viewBox="0 0 248 147" version="1.1" xmlns="http://www.w3.org/2000/svg" xmlns:xlink="http://www.w3.org/1999/xlink">
    <!-- Generator: Sketch 64 (93537) - https://sketch.com -->
    <title>logo/card_dynamics</title>
    <desc>Created with Sketch.</desc>
    <g id="Web-Responsive-Enrollment" stroke="none" stroke-width="1" fill="none" fill-rule="evenodd">
        <g id="00.1_Intro" transform="translate(-598.000000, -289.000000)" fill="#FFFFFF" fill-rule="nonzero">
            <g id="logo/card_dynamics" transform="translate(588.000000, 285.000000)">
                <path d="M125.350372,125.556777 L130.1035,137.651775 L134.888106,125.556777 L139.609756,125.556777 L131.960683,144.477994 L131.821756,144.834245 C131.070649,146.700618 130.156889,148.028849 129.080476,148.818939 C127.936787,149.658409 126.557016,150.078144 124.941162,150.078144 C124.059788,150.078144 123.188906,149.93455 122.328516,149.647363 C121.468126,149.360176 120.765125,148.962532 120.219512,148.454432 L120.219512,148.454432 L122.013739,144.776227 L122.207414,144.946514 C122.538221,145.219587 122.909104,145.438966 123.320063,145.604651 C123.813213,145.803473 124.301117,145.902884 124.783774,145.902884 C125.455298,145.902884 126.000911,145.731676 126.420613,145.389261 C126.840315,145.046845 127.218047,144.477994 127.553809,143.682706 L127.553809,143.682706 L127.616764,143.517021 L120.282468,125.556777 L125.350372,125.556777 Z M250.077077,125.556777 C251.287474,125.556777 252.492563,125.69267 253.692342,125.964457 C254.892122,126.236243 255.88486,126.611309 256.670556,127.089653 L256.670556,127.089653 L255.014223,130.709851 L254.689035,130.530139 C253.270729,129.78023 251.73341,129.405275 250.077077,129.405275 C249.015325,129.405275 248.219011,129.557476 247.688135,129.861877 C247.157259,130.166278 246.891822,130.557651 246.891822,131.035995 C246.891822,131.579569 247.178495,131.96007 247.751841,132.177499 C248.325187,132.394929 249.238293,132.601486 250.49116,132.797173 C251.892673,133.036345 253.039365,133.291824 253.931237,133.563611 C254.823108,133.835398 255.598187,134.330049 256.256473,135.047566 C256.914759,135.765083 257.243902,136.765258 257.243902,138.048091 C257.243902,139.135237 256.925377,140.102798 256.288326,140.950772 C255.651275,141.798746 254.722242,142.45647 253.501227,142.923943 C252.280212,143.391416 250.830921,143.625153 249.153353,143.625153 C247.730605,143.625153 246.339711,143.445773 244.980668,143.087015 C243.621626,142.728257 242.538639,142.277091 241.731707,141.733518 L241.731707,141.733518 L243.38804,138.080705 L243.682179,138.263906 C244.385921,138.681269 245.211599,139.027882 246.159213,139.303745 C247.2422,139.619017 248.303952,139.776654 249.344468,139.776654 C251.446737,139.776654 252.497871,139.243952 252.497871,138.178548 C252.497871,137.678461 252.211198,137.319702 251.637852,137.102273 C251.064506,136.884844 250.183252,136.700029 248.99409,136.547828 C247.592578,136.330399 246.435268,136.080355 245.522162,135.797697 C244.609055,135.515039 243.81805,135.014952 243.149146,134.297435 C242.480242,133.579918 242.145791,132.558 242.145791,131.231682 C242.145791,130.122792 242.459007,129.138925 243.085441,128.280079 C243.711875,127.421233 244.624981,126.752638 245.824761,126.274293 C247.02454,125.795949 248.441979,125.556777 250.077077,125.556777 Z M106.877702,120.394383 L107.31929,120.400023 C109.511071,120.456414 111.460507,120.935743 113.167596,121.83801 C114.988492,122.800427 116.403588,124.155556 117.412885,125.903394 C118.422181,127.651233 118.926829,129.686691 118.926829,132.009768 C118.926829,134.332845 118.422181,136.368303 117.412885,138.116142 C116.403588,139.86398 114.988492,141.219109 113.167596,142.181526 C111.346701,143.143944 109.250069,143.625153 106.877702,143.625153 L106.877702,143.625153 L96.9512195,143.625153 L96.9512195,120.394383 L106.877702,120.394383 Z M152.186386,125.556777 C154.223341,125.556777 155.868182,126.218622 157.120909,127.542312 C158.373636,128.866003 159,130.829477 159,133.432735 L159,133.432735 L159,143.625153 L154.233525,143.625153 L154.233525,134.22695 L154.229161,133.929879 C154.191331,132.666351 153.907613,131.711938 153.378004,131.066638 C152.807657,130.371701 151.98269,130.024232 150.903104,130.024232 C149.701301,130.024232 148.743932,130.426855 148.030998,131.2321 C147.318064,132.037345 146.961596,133.234182 146.961596,134.82261 L146.961596,134.82261 L146.961596,143.625153 L142.195122,143.625153 L142.195122,125.821515 L146.747716,125.821515 L146.747716,127.906327 L146.96386,127.662629 C147.555331,127.029655 148.267511,126.531773 149.100399,126.168983 C150.037398,125.760846 151.066061,125.556777 152.186386,125.556777 Z M170.527898,125.556777 C173.057611,125.556777 175.00043,126.203629 176.356355,127.497333 C177.712281,128.791038 178.390244,130.742466 178.390244,133.351617 L178.390244,133.351617 L178.390244,143.364237 L173.958188,143.364237 L173.958188,141.179073 L173.842875,141.378666 C172.928103,142.876324 171.30705,143.625153 168.979715,143.625153 C167.724977,143.625153 166.637201,143.396852 165.716386,142.94025 C164.795571,142.483649 164.092311,141.853104 163.606606,141.048615 C163.120901,140.244127 162.878049,139.330924 162.878049,138.309006 C162.878049,136.678286 163.449764,135.395453 164.593194,134.460507 C165.736624,133.525561 167.502363,133.058088 169.890411,133.058088 L169.890411,133.058088 L173.654623,133.058088 L173.649054,132.806725 C173.604507,131.819416 173.292679,131.049794 172.71357,130.497858 C172.086201,129.899927 171.145148,129.600962 169.890411,129.600962 C169.02019,129.600962 168.165147,129.747727 167.325283,130.041256 C166.485418,130.334786 165.77204,130.731594 165.185146,131.231682 L165.185146,131.231682 L163.48518,127.676712 L163.788558,127.457672 C164.615055,126.888598 165.581468,126.439781 166.687795,126.111221 C167.932414,125.741591 169.212448,125.556777 170.527898,125.556777 Z M203.824385,125.556777 C205.930979,125.556777 207.604783,126.213106 208.845797,127.525766 C210.08681,128.838426 210.707317,130.807416 210.707317,133.432735 L210.707317,133.432735 L210.707317,143.625153 L205.826692,143.625153 L205.826692,134.22695 L205.822462,133.929879 C205.785802,132.666351 205.510852,131.711938 204.997612,131.066638 C204.444892,130.371701 203.657526,130.024232 202.635515,130.024232 C201.488359,130.024232 200.581064,130.415824 199.913628,131.199008 C199.246192,131.982191 198.912474,133.145936 198.912474,134.690241 L198.912474,134.690241 L198.912474,143.625153 L194.03185,143.625153 L194.03185,134.22695 L194.028529,133.96018 C193.962115,131.336215 192.899496,130.024232 190.840672,130.024232 C189.714374,130.024232 188.817507,130.415824 188.150071,131.199008 C187.482635,131.982191 187.148917,133.145936 187.148917,134.690241 L187.148917,134.690241 L187.148917,143.625153 L182.268293,143.625153 L182.268293,125.821515 L186.929915,125.821515 L186.929915,127.873235 L187.143703,127.629741 C187.727709,126.997856 188.422955,126.505421 189.22944,126.152437 C190.136736,125.75533 191.132675,125.556777 192.217258,125.556777 C193.406128,125.556777 194.480283,125.804969 195.439722,126.301352 C196.399161,126.797736 197.170884,127.520251 197.75489,128.468896 C198.443183,127.542312 199.313979,126.825313 200.367276,126.317899 C201.420573,125.810484 202.572943,125.556777 203.824385,125.556777 Z M232.952933,125.556777 C234.713148,125.556777 236.250748,125.942714 237.565732,126.714588 C238.880716,127.486462 239.83848,128.589915 240.439024,130.024949 L240.439024,130.024949 L236.680447,132.144885 L236.553591,131.920504 C235.690505,130.461114 234.479932,129.731419 232.92187,129.731419 C231.658657,129.731419 230.612882,130.166278 229.784545,131.035995 C228.956209,131.905713 228.54204,133.090702 228.54204,134.590965 C228.54204,136.091227 228.956209,137.276217 229.784545,138.145934 C230.612882,139.015651 231.658657,139.45051 232.92187,139.45051 C234.578543,139.45051 235.831402,138.646021 236.680447,137.037044 L236.680447,137.037044 L240.439024,139.189595 L240.304869,139.483124 C239.699834,140.734896 238.786789,141.724199 237.565732,142.451034 C236.250748,143.23378 234.713148,143.625153 232.952933,143.625153 C231.172009,143.625153 229.572284,143.239216 228.153758,142.467342 C226.735231,141.695467 225.627331,140.624628 224.830057,139.254823 C224.032783,137.885019 223.634146,136.330399 223.634146,134.590965 C223.634146,132.85153 224.032783,131.29691 224.830057,129.927106 C225.627331,128.557301 226.735231,127.486462 228.153758,126.714588 C229.572284,125.942714 231.172009,125.556777 232.952933,125.556777 Z M22.0079268,120.329853 C23.5591463,120.329853 25.0134146,120.582596 26.3707317,121.08808 C27.7280488,121.593564 28.8914634,122.341036 29.8609756,123.330495 L29.8609756,123.330495 L29.1823171,124.040324 L28.9349601,123.809772 C27.0999531,122.156636 24.8017144,121.330067 22.0402439,121.330067 C20.0581301,121.330067 18.2591463,121.787154 16.6432927,122.701328 C15.027439,123.615502 13.7563008,124.868457 12.829878,126.460195 C11.9034553,128.051933 11.4402439,129.815751 11.4402439,131.751648 C11.4402439,133.687546 11.9034553,135.451363 12.829878,137.043101 C13.7563008,138.634839 15.027439,139.887795 16.6432927,140.801969 C18.2591463,141.716143 20.0581301,142.17323 22.0402439,142.17323 C24.9056911,142.17323 27.2863821,141.259056 29.1823171,139.430708 L29.1823171,139.430708 L29.8609756,140.140537 L29.5918892,140.404523 C28.6793548,141.264922 27.6110218,141.929776 26.3868902,142.399084 C25.0403455,142.915324 23.5806911,143.173443 22.0079268,143.173443 C19.8103659,143.173443 17.8228659,142.678714 16.0454268,141.689255 C14.2679878,140.699796 12.8729675,139.333913 11.8603659,137.591606 C10.8477642,135.849298 10.3414634,133.902646 10.3414634,131.751648 C10.3414634,129.600651 10.8477642,127.653999 11.8603659,125.911691 C12.8729675,124.169383 14.2679878,122.8035 16.0454268,121.814042 C17.8228659,120.824583 19.8103659,120.329853 22.0079268,120.329853 Z M40.622561,126.169811 C42.6262195,126.169811 44.1612805,126.68605 45.2277439,127.718529 C46.2942073,128.751007 46.827439,130.24595 46.827439,132.203358 L46.827439,132.203358 L46.827439,143.044383 L45.7932927,143.044383 L45.7932927,139.688828 L45.6531398,139.952885 C45.1190852,140.903432 44.3632622,141.659679 43.3856707,142.221627 C42.3192073,142.834661 41.0426829,143.141178 39.5560976,143.141178 C37.6817073,143.141178 36.2112805,142.710979 35.1448171,141.85058 C34.0783537,140.990181 33.545122,139.850153 33.545122,138.430495 C33.545122,137.075366 34.029878,135.97298 34.9993902,135.123336 C35.9689024,134.273693 37.520122,133.848871 39.6530488,133.848871 L39.6530488,133.848871 L45.7609756,133.848871 L45.7609756,132.203358 L45.7558629,131.897471 C45.7047363,130.391353 45.2701601,129.234982 44.4521341,128.428358 C43.5795732,127.567959 42.2922764,127.137759 40.5902439,127.137759 C39.4052846,127.137759 38.2957317,127.342104 37.2615854,127.750794 C36.227439,128.159483 35.3441057,128.707987 34.6115854,129.396306 L34.6115854,129.396306 L34.029878,128.621947 L34.3089619,128.370201 C35.0696766,127.715873 35.9623193,127.197509 36.9868902,126.81511 C38.1395325,126.38491 39.3514228,126.169811 40.622561,126.169811 Z M80.9219512,119.103785 L80.9219512,143.044383 L79.8878049,143.044383 L79.8878049,138.462759 L79.7488909,138.771334 C79.1251384,140.087448 78.2180894,141.129996 77.0277439,141.898977 C75.7458333,142.727111 74.2861789,143.141178 72.6487805,143.141178 C71.1191057,143.141178 69.7294715,142.780886 68.479878,142.060302 C67.2302846,141.339718 66.2446138,140.334127 65.5228659,139.043529 C64.8011179,137.75293 64.4402439,136.290252 64.4402439,134.655495 C64.4402439,133.020737 64.8011179,131.558059 65.5228659,130.26746 C66.2446138,128.976862 67.2302846,127.971271 68.479878,127.250687 C69.7294715,126.530103 71.1191057,126.169811 72.6487805,126.169811 C74.2646341,126.169811 75.7135163,126.5785 76.9954268,127.395879 C78.2773374,128.213258 79.2306911,129.342532 79.8554878,130.7837 L79.8554878,130.7837 L79.8554878,119.103785 L80.9219512,119.103785 Z M61.370122,126.169811 L61.370122,127.234554 L61.0792683,127.234554 L60.7599876,127.240231 C58.9727736,127.304561 57.5602981,127.915703 56.522561,129.073657 C55.4237805,130.299725 54.8743902,131.988258 54.8743902,134.139255 L54.8743902,134.139255 L54.8743902,143.044383 L53.8079268,143.044383 L53.8079268,126.298871 L54.8420732,126.298871 L54.8420732,130.33199 L54.952957,130.050906 C55.4538167,128.853207 56.2193961,127.919801 57.2496951,127.250687 C58.359248,126.530103 59.7327236,126.169811 61.370122,126.169811 L61.370122,126.169811 Z M221.04878,125.556777 L221.04878,142.334554 L215.878049,142.334554 L215.878049,125.556777 L221.04878,125.556777 Z M45.7609756,134.720024 L39.6530488,134.720024 L39.3313298,134.723868 C37.7501917,134.762309 36.580907,135.089055 35.8234756,135.704106 C35.0155488,136.36016 34.6115854,137.247446 34.6115854,138.365965 C34.6115854,139.570523 35.0586382,140.516962 35.9527439,141.205281 C36.8468496,141.8936 38.0695122,142.237759 39.6207317,142.237759 C42.6369919,142.237759 44.6837398,140.893386 45.7609756,138.20464 L45.7609756,138.20464 L45.7609756,134.720024 Z M72.6810976,127.170024 C71.3237805,127.170024 70.1011179,127.487296 69.0131098,128.121841 C67.9251016,128.756385 67.0686992,129.638294 66.4439024,130.767567 C65.8191057,131.896841 65.5067073,133.192816 65.5067073,134.655495 C65.5067073,136.118173 65.8191057,137.419526 66.4439024,138.559554 C67.0686992,139.699583 67.9251016,140.586869 69.0131098,141.221413 C70.1011179,141.855957 71.3237805,142.17323 72.6810976,142.17323 C74.0384146,142.17323 75.2610772,141.855957 76.3490854,141.221413 C77.4370935,140.586869 78.2934959,139.699583 78.9182927,138.559554 C79.5430894,137.419526 79.8554878,136.118173 79.8554878,134.655495 C79.8554878,133.192816 79.5430894,131.896841 78.9182927,130.767567 C78.2934959,129.638294 77.4370935,128.756385 76.3490854,128.121841 C75.2610772,127.487296 74.0384146,127.170024 72.6810976,127.170024 Z M173.219512,135.881563 L169.812688,135.881563 L169.573051,135.884612 C167.695082,135.933397 166.756098,136.567597 166.756098,137.787212 C166.756098,138.39218 167.005507,138.871113 167.504325,139.224011 C168.003144,139.576909 168.687693,139.753358 169.557972,139.753358 C170.407025,139.753358 171.160559,139.566826 171.818575,139.193762 C172.476591,138.820699 172.94357,138.271186 173.219512,137.545225 L173.219512,137.545225 L173.219512,135.881563 Z M106.67712,124.266178 L102.121951,124.266178 L102.121951,138.462759 L106.67712,138.462759 C108.831591,138.462759 110.550039,137.824895 111.832462,136.549165 C113.114886,135.273435 113.756098,133.545203 113.756098,131.364469 C113.756098,129.183734 113.114886,127.455502 111.832462,126.179773 C110.550039,124.904043 108.831591,124.266178 106.67712,124.266178 L106.67712,124.266178 Z M221.04878,119.103785 L221.04878,122.97558 L215.878049,122.97558 L215.878049,119.103785 L221.04878,119.103785 Z M183.278629,10.6930822 L186.982783,10.6935287 C190.804404,10.6935287 193.902439,13.7915641 193.902439,17.6131844 L193.902439,19.7277167 L189.065491,19.7273057 C190.612064,26.0992736 189.833921,34.5898658 187.439024,42.958486 C187.062773,44.2732427 186.639705,45.5642189 186.16982,46.8314145 L196.487805,46.8302808 L196.487805,61.026862 L186.146341,61.026862 L186.146341,81.6764347 L196.487805,81.6764347 C196.487805,85.2403234 193.598702,88.1294261 190.034813,88.1294261 L132.300692,88.1306454 C119.606551,91.7808138 104.807133,94.361604 87.902439,95.8730159 C100.707934,92.5933639 110.072771,90.0474193 115.996951,88.2351821 L116.341463,88.1294261 L90.9440459,88.1294261 C87.1224256,88.1294261 84.0243902,85.0313908 84.0243902,81.2097705 L84.0243902,42.958486 L177.097895,42.9574842 C181.322018,30.304931 180.798109,20.1220212 174.512691,14.38983 L174.512195,35.2148962 L84.0243902,35.2148962 L84.0243902,17.6131844 C84.0243902,13.7915641 87.1224256,10.6935287 90.9440459,10.6935287 L167.944292,10.6937301 C162.64457,8.9611317 152.76883,7.67046626 138.317073,6.82173382 C159.41929,2.77015956 174.406475,4.06060902 183.278629,10.6930822 Z M217.817073,61.026862 L217.817073,80.3858364 L199.719512,80.3858364 L199.719512,61.026862 L217.817073,61.026862 Z M241.731707,57.8003663 L241.731707,75.8687424 L226.219512,75.8687424 L226.219512,57.8003663 L241.731707,57.8003663 Z M252.073171,39.0866911 L252.073171,50.7020757 L241.731707,50.7020757 L241.731707,39.0866911 L252.073171,39.0866911 Z M219.756098,20.3730159 L219.756098,44.8943834 L195.195122,44.8943834 L195.195122,20.3730159 L219.756098,20.3730159 Z" id="Combined-Shape"></path>
            </g>
        </g>
    </g>
</svg>