<?xml version="1.0" encoding="UTF-8"?>
<svg width="52px" height="38px" viewBox="0 0 52 38" version="1.1" xmlns="http://www.w3.org/2000/svg" xmlns:xlink="http://www.w3.org/1999/xlink">
    <!-- Generator: Sketch 53.2 (72643) - https://sketchapp.com -->
    <title>img_tarjeta_azul</title>
    <desc>Created with Sketch.</desc>
    <g id="Pantallas-en-Ingles--FINAL" stroke="none" stroke-width="1" fill="none" fill-rule="evenodd">
        <g id="1_Mismo_banco_noSeleccion-Copy" transform="translate(-38.000000, -199.000000)">
            <g id="img_tarjeta_azul" transform="translate(36.000000, 191.000000)">
                <g id="credit-card-(1)" transform="translate(2.000000, 8.000000)">
                    <path d="M49.1157931,38 L2.8842069,38 C1.29103448,38 0,36.6971429 0,35.089381 L0,2.91061905 C0,1.30285714 1.29103448,0 2.8842069,0 L49.1157931,0 C50.7089655,0 52,1.30285714 52,2.91061905 L52,35.089381 C52,36.6971429 50.7089655,38 49.1157931,38" id="XMLID_120_" fill="#3A79BD" fill-rule="nonzero"></path>
                    <path d="M12.5517241,8.14285714 L4.48275862,8.14285714 C3.98696552,8.14285714 3.5862069,7.73752381 3.5862069,7.23809524 C3.5862069,6.73866667 3.98696552,6.33333333 4.48275862,6.33333333 L12.5517241,6.33333333 C13.0475172,6.33333333 13.4482759,6.73866667 13.4482759,7.23809524 C13.4482759,7.73752381 13.0475172,8.14285714 12.5517241,8.14285714" id="XMLID_119_" fill="#FFFFFF" fill-rule="nonzero"></path>
                    <path d="M24.2068966,8.14285714 L16.137931,8.14285714 C15.6421379,8.14285714 15.2413793,7.73752381 15.2413793,7.23809524 C15.2413793,6.73866667 15.6421379,6.33333333 16.137931,6.33333333 L24.2068966,6.33333333 C24.7026897,6.33333333 25.1034483,6.73866667 25.1034483,7.23809524 C25.1034483,7.73752381 24.7026897,8.14285714 24.2068966,8.14285714" id="XMLID_118_" fill="#FFFFFF" fill-rule="nonzero"></path>
                    <path d="M5.37931034,12.6666667 L4.48275862,12.6666667 C3.98696552,12.6666667 3.5862069,12.2613333 3.5862069,11.7619048 C3.5862069,11.2624762 3.98696552,10.8571429 4.48275862,10.8571429 L5.37931034,10.8571429 C5.87510345,10.8571429 6.27586207,11.2624762 6.27586207,11.7619048 C6.27586207,12.2613333 5.87510345,12.6666667 5.37931034,12.6666667" id="XMLID_117_" fill="#FFFFFF" fill-rule="nonzero"></path>
                    <path d="M10.7586207,12.6666667 L8.96551724,12.6666667 C8.46972414,12.6666667 8.06896552,12.2613333 8.06896552,11.7619048 C8.06896552,11.2624762 8.46972414,10.8571429 8.96551724,10.8571429 L10.7586207,10.8571429 C11.2544138,10.8571429 11.6551724,11.2624762 11.6551724,11.7619048 C11.6551724,12.2613333 11.2544138,12.6666667 10.7586207,12.6666667" id="XMLID_116_" fill="#FFFFFF" fill-rule="nonzero"></path>
                    <path d="M15.2413793,12.6666667 L14.3448276,12.6666667 C13.8490345,12.6666667 13.4482759,12.2613333 13.4482759,11.7619048 C13.4482759,11.2624762 13.8490345,10.8571429 14.3448276,10.8571429 L15.2413793,10.8571429 C15.7371724,10.8571429 16.137931,11.2624762 16.137931,11.7619048 C16.137931,12.2613333 15.7371724,12.6666667 15.2413793,12.6666667" id="XMLID_115_" fill="#FFFFFF" fill-rule="nonzero"></path>
                    <path d="M20.6206897,12.6666667 L18.8275862,12.6666667 C18.3317931,12.6666667 17.9310345,12.2613333 17.9310345,11.7619048 C17.9310345,11.2624762 18.3317931,10.8571429 18.8275862,10.8571429 L20.6206897,10.8571429 C21.1164828,10.8571429 21.5172414,11.2624762 21.5172414,11.7619048 C21.5172414,12.2613333 21.1164828,12.6666667 20.6206897,12.6666667" id="XMLID_114_" fill="#FFFFFF" fill-rule="nonzero"></path>
                    <path d="M24.2068966,12.6666667 C23.9737931,12.6666667 23.7388966,12.5671429 23.5703448,12.4042857 C23.408069,12.232381 23.3103448,11.9971429 23.3103448,11.7619048 C23.3103448,11.5266667 23.408069,11.2914286 23.5703448,11.1195238 C23.902069,10.7847619 24.5027586,10.7847619 24.8434483,11.1195238 C25.0048276,11.2914286 25.1034483,11.5266667 25.1034483,11.7619048 C25.1034483,11.9971429 25.0048276,12.232381 24.8434483,12.4042857 C24.6722069,12.5671429 24.448069,12.6666667 24.2068966,12.6666667" id="XMLID_113_" fill="#FFFFFF" fill-rule="nonzero"></path>
                    <rect id="XMLID_112_" fill="#2C91D0" fill-rule="nonzero" x="33.1724138" y="6.33333333" width="14.3448276" height="9.04761905"></rect>
                    <path d="M48.4137931,16.2857143 L32.2758621,16.2857143 L32.2758621,5.42857143 L48.4137931,5.42857143 L48.4137931,16.2857143 Z M34.0689655,14.4761905 L46.6206897,14.4761905 L46.6206897,7.23809524 L34.0689655,7.23809524 L34.0689655,14.4761905 Z" id="XMLID_109_" fill="#FFFFFF" fill-rule="nonzero"></path>
                    <rect id="XMLID_108_" fill="#1D6AAA" fill-rule="nonzero" x="4.48275862" y="26.2380952" width="8.06896552" height="5.42857143"></rect>
                    <rect id="XMLID_107_" fill="#1D6AAA" fill-rule="nonzero" x="16.137931" y="26.2380952" width="8.06896552" height="5.42857143"></rect>
                    <rect id="XMLID_106_" fill="#1D6AAA" fill-rule="nonzero" x="27.7931034" y="26.2380952" width="8.06896552" height="5.42857143"></rect>
                    <rect id="XMLID_105_" fill="#1D6AAA" fill-rule="nonzero" x="39.4482759" y="26.2380952" width="8.06896552" height="5.42857143"></rect>
                </g>
            </g>
        </g>
    </g>
</svg>