<?xml version="1.0" encoding="UTF-8"?>
<svg width="166px" height="102px" viewBox="0 0 166 102" version="1.1" xmlns="http://www.w3.org/2000/svg" xmlns:xlink="http://www.w3.org/1999/xlink">
    <!-- Generator: Sketch 64 (93537) - https://sketch.com -->
    <title>Group 161</title>
    <desc>Created with Sketch.</desc>
    <defs>
        <polygon id="path-1" points="0.505670346 0.00214465105 26.274077 0.00214465105 26.274077 12.8679063 0.505670346 12.8679063"></polygon>
        <polygon id="path-3" points="0.439032692 0.0947243941 11.1758688 0.0947243941 11.1758688 10.8136903 0.439032692 10.8136903"></polygon>
        <polygon id="path-5" points="0.361117897 0.249388326 47.6521567 0.249388326 47.6521567 34.3965224 0.361117897 34.3965224"></polygon>
        <polygon id="path-7" points="0.0114574873 0.27769772 10.9157882 0.27769772 10.9157882 14.602251 0.0114574873 14.602251"></polygon>
        <polygon id="path-9" points="0.439032692 0.0501848346 11.173292 0.0501848346 11.173292 18.8673532 0.439032692 18.8673532"></polygon>
        <polygon id="path-11" points="0.439032692 0.00200719166 47.4573559 0.00200719166 47.4573559 43.8103653 0.439032692 43.8103653"></polygon>
    </defs>
    <g id="Symbols" stroke="none" stroke-width="1" fill="none" fill-rule="evenodd">
        <g id="bg/tarjeta/miniatura/azul">
            <g id="Group-8">
                <g id="Group-161" transform="translate(82.141935, 50.790323) rotate(90.000000) translate(-82.141935, -50.790323) translate(20.641935, -35.209677)">
                    <polygon id="Fill-1" fill="#49BBC2" points="1.25063667 170.819355 120.66354 170.819355 120.66354 0 1.25063667 0"></polygon>
                    <g id="Group-160" transform="translate(0.179669, 0.000000)">
                        <path d="M47.0098446,69.0669512 C39.8032802,69.0669512 33.9495571,63.2120539 33.9495571,56.0231835 C33.9495571,48.8300239 39.8032802,42.9794159 47.0098446,42.9794159 C54.2121142,42.9794159 60.070132,48.8300239 60.070132,56.0231835 C60.070132,63.2120539 54.2121142,69.0669512 47.0098446,69.0669512 M47.0098446,41.0106262 C38.7210071,41.0106262 31.978274,47.7448305 31.978274,56.0231835 C31.978274,64.3015366 38.7210071,71.0357409 47.0098446,71.0357409 C55.298682,71.0357409 62.0414151,64.3015366 62.0414151,56.0231835 C62.0414151,47.7448305 55.298682,41.0106262 47.0098446,41.0106262" id="Fill-2" fill="#FD5959"></path>
                        <g id="Group-6" transform="translate(84.758662, 158.136883)">
                            <mask id="mask-2" fill="white">
                                <use xlink:href="#path-1"></use>
                            </mask>
                            <g id="Clip-5"></g>
                            <path d="M13.3898737,24.0436829 C7.21834028,24.0436829 2.19779572,19.0251995 2.19779572,12.870051 C2.19779572,6.70203453 7.21834028,1.68355107 13.3898737,1.68355107 C19.5614071,1.68355107 24.5819516,6.70203453 24.5819516,12.870051 C24.5819516,19.0251995 19.5614071,24.0436829 13.3898737,24.0436829 M13.3898737,0.00214465105 C6.28638291,0.00214465105 0.505670346,5.77125598 0.505670346,12.870051 C0.505670346,19.9645566 6.28638291,25.7379573 13.3898737,25.7379573 C20.4933644,25.7379573 26.274077,19.9645566 26.274077,12.870051 C26.274077,5.77125598 20.4933644,0.00214465105 13.3898737,0.00214465105" id="Fill-4" fill="#E7D183" mask="url(#mask-2)"></path>
                        </g>
                        <g id="Group-9" transform="translate(0.000000, 9.145899)">
                            <mask id="mask-4" fill="white">
                                <use xlink:href="#path-3"></use>
                            </mask>
                            <g id="Clip-8"></g>
                            <path d="M-10.2935087,10.8136903 L-8.88483578,10.8136903 C-8.88483578,5.67939573 -4.70605917,1.50161548 0.439032692,1.50161548 C5.57982982,1.50161548 9.7671959,5.67939573 9.7671959,10.8136903 L11.1758688,10.8136903 C11.1758688,4.90732135 6.35717675,0.0947243941 0.439032692,0.0947243941 C-5.47911137,0.0947243941 -10.2935087,4.90732135 -10.2935087,10.8136903" id="Fill-7" fill="#FD5959" mask="url(#mask-4)"></path>
                        </g>
                        <path d="M20.2265922,79.4925289 C20.2265922,85.656256 15.2060476,90.6704502 9.03451421,90.6704502 L9.03451421,92.3604352 C16.1337102,92.3604352 21.9187175,86.5870346 21.9187175,79.4925289 L20.2265922,79.4925289 Z" id="Fill-10" fill="#364F6B"></path>
                        <path d="M32.5885558,158.421693 C32.5885558,152.257965 37.6091003,147.239482 43.7806337,147.239482 L43.7806337,145.553786 C36.6814377,145.553786 30.8964304,151.327187 30.8964304,158.421693 L32.5885558,158.421693 Z" id="Fill-12" fill="#FD5959"></path>
                        <path d="M70.421301,119.118389 L70.421301,120.761191 C76.4253397,120.761191 81.3127475,125.642417 81.3127475,131.634572 C81.3127475,137.626727 76.4253397,142.512242 70.421301,142.512242 L70.421301,144.155045 C77.3315287,144.146466 82.9533361,138.536059 82.9533361,131.634572 C82.9533361,124.737374 77.3315287,119.118389 70.421301,119.118389" id="Fill-14" fill="#FD5959"></path>
                        <path d="M44.690688,92.0172911 L44.690688,86.9516253 C26.1717931,86.9516253 11.1015699,71.9090428 11.1015699,53.4135721 C11.1015699,34.9138122 26.1717931,19.8540725 44.690688,19.8540725 L44.690688,14.792696 C23.3802157,14.8055639 6.03807798,32.1171872 6.03807798,53.4135721 C6.03807798,74.6970892 23.3802157,92.0172911 44.690688,92.0172911" id="Fill-16" fill-opacity="0.1" fill="#000000"></path>
                        <path d="M97.6975889,62.4571367 C97.2981786,62.4571367 96.9760735,62.7831237 96.9760735,63.1777394 C96.9760735,63.5766445 97.2981786,63.9026315 97.6975889,63.9026315 C98.0969992,63.9026315 98.4191043,63.5766445 98.4191043,63.1777394 C98.4191043,62.7831237 98.0969992,62.4571367 97.6975889,62.4571367" id="Fill-18" fill="#FD5959"></path>
                        <path d="M97.6975889,68.1704871 C97.2981786,68.1704871 96.9760735,68.4964741 96.9760735,68.8910898 C96.9760735,69.2899949 97.2981786,69.6116926 97.6975889,69.6116926 C98.0969992,69.6116926 98.4191043,69.2899949 98.4191043,68.8910898 C98.4191043,68.4964741 98.0969992,68.1704871 97.6975889,68.1704871" id="Fill-20" fill="#FD5959"></path>
                        <path d="M97.6975889,73.8838375 C97.2981786,73.8838375 96.9760735,74.2055352 96.9760735,74.6044402 C96.9760735,75.0033453 97.2981786,75.325043 97.6975889,75.325043 C98.0969992,75.325043 98.4191043,75.0033453 98.4191043,74.6044402 C98.4191043,74.2055352 98.0969992,73.8838375 97.6975889,73.8838375" id="Fill-22" fill="#FD5959"></path>
                        <path d="M103.149754,62.4571367 C102.750344,62.4571367 102.423944,62.7831237 102.423944,63.1777394 C102.423944,63.5766445 102.750344,63.9026315 103.149754,63.9026315 C103.54487,63.9026315 103.87127,63.5766445 103.87127,63.1777394 C103.87127,62.7831237 103.54487,62.4571367 103.149754,62.4571367" id="Fill-24" fill="#FD5959"></path>
                        <path d="M103.149754,68.1704871 C102.750344,68.1704871 102.423944,68.4964741 102.423944,68.8910898 C102.423944,69.2899949 102.750344,69.6116926 103.149754,69.6116926 C103.54487,69.6116926 103.87127,69.2899949 103.87127,68.8910898 C103.87127,68.4964741 103.54487,68.1704871 103.149754,68.1704871" id="Fill-26" fill="#FD5959"></path>
                        <path d="M103.149754,73.8838375 C102.750344,73.8838375 102.423944,74.2055352 102.423944,74.6044402 C102.423944,75.0033453 102.750344,75.325043 103.149754,75.325043 C103.54487,75.325043 103.87127,75.0033453 103.87127,74.6044402 C103.87127,74.2055352 103.54487,73.8838375 103.149754,73.8838375" id="Fill-28" fill="#FD5959"></path>
                        <path d="M108.598054,63.9022026 C108.997465,63.9022026 109.31957,63.5762156 109.31957,63.1815998 C109.31957,62.7826947 108.997465,62.4567078 108.598054,62.4567078 C108.198644,62.4567078 107.876539,62.7826947 107.876539,63.1815998 C107.876539,63.5762156 108.198644,63.9022026 108.598054,63.9022026" id="Fill-30" fill="#364F6B"></path>
                        <path d="M108.598054,68.1704871 C108.198644,68.1704871 107.876539,68.4964741 107.876539,68.8910898 C107.876539,69.2899949 108.198644,69.6116926 108.598054,69.6116926 C108.997465,69.6116926 109.31957,69.2899949 109.31957,68.8910898 C109.31957,68.4964741 108.997465,68.1704871 108.598054,68.1704871" id="Fill-32" fill="#364F6B"></path>
                        <path d="M108.598054,73.8838375 C108.198644,73.8838375 107.876539,74.2055352 107.876539,74.6044402 C107.876539,75.0033453 108.198644,75.325043 108.598054,75.325043 C108.997465,75.325043 109.31957,75.0033453 109.31957,74.6044402 C109.31957,74.2055352 108.997465,73.8838375 108.598054,73.8838375" id="Fill-34" fill="#364F6B"></path>
                        <g id="Group-57" transform="translate(62.716977, 99.221243)" fill="#000000" fill-opacity="0.1">
                            <path d="M4.0787093,0.461459724 C2.09883672,0.461459724 0.496900775,2.07423731 0.496900775,4.04731628 C0.496900775,6.02468455 2.09883672,7.63746214 4.0787093,7.63746214 C6.05428714,7.63746214 7.66051783,6.02468455 7.66051783,4.04731628 C7.66051783,2.07423731 6.05428714,0.461459724 4.0787093,0.461459724" id="Fill-36"></path>
                            <path d="M4.0787093,28.823612 C2.09883672,28.823612 0.496900775,30.4406789 0.496900775,32.4137579 C0.496900775,34.3868368 2.09883672,35.9910358 4.0787093,35.9910358 C6.05428714,35.9910358 7.66051783,34.3868368 7.66051783,32.4137579 C7.66051783,30.4406789 6.05428714,28.823612 4.0787093,28.823612" id="Fill-38"></path>
                            <path d="M4.0787093,57.1900536 C2.09883672,57.1900536 0.496900775,58.7899633 0.496900775,60.7673315 C0.496900775,62.7532784 2.09883672,64.3446095 4.0787093,64.3446095 C6.05428714,64.3446095 7.66051783,62.7532784 7.66051783,60.7673315 C7.66051783,58.7899633 6.05428714,57.1900536 4.0787093,57.1900536" id="Fill-40"></path>
                            <path d="M31.1471321,0.461459724 C29.15867,0.461459724 27.5438499,2.07423731 27.5438499,4.04731628 C27.5438499,6.02468455 29.15867,7.63746214 31.1471321,7.63746214 C33.1141204,7.63746214 34.7289406,6.02468455 34.7289406,4.04731628 C34.7289406,2.07423731 33.1141204,0.461459724 31.1471321,0.461459724" id="Fill-42"></path>
                            <path d="M31.1471321,28.823612 C29.15867,28.823612 27.5438499,30.4406789 27.5438499,32.4137579 C27.5438499,34.3868368 29.15867,35.9910358 31.1471321,35.9910358 C33.1141204,35.9910358 34.7289406,34.3868368 34.7289406,32.4137579 C34.7289406,30.4406789 33.1141204,28.823612 31.1471321,28.823612" id="Fill-44"></path>
                            <path d="M31.1471321,57.1900536 C29.15867,57.1900536 27.5438499,58.7899633 27.5438499,60.7673315 C27.5438499,62.7532784 29.15867,64.3446095 31.1471321,64.3446095 C33.1141204,64.3446095 34.7289406,62.7532784 34.7289406,60.7673315 C34.7289406,58.7899633 33.1141204,57.1900536 31.1471321,57.1900536" id="Fill-46"></path>
                        </g>
                        <path d="M46.7753521,151.987739 C46.7753521,151.584545 46.4489522,151.267137 46.0538367,151.267137 C45.6544264,151.267137 45.3280266,151.584545 45.3280266,151.987739 C45.3280266,152.382355 45.6544264,152.708342 46.0538367,152.708342 C46.4489522,152.708342 46.7753521,152.382355 46.7753521,151.987739" id="Fill-58" fill="#FCE38A"></path>
                        <path d="M41.0543363,151.987739 C41.0543363,151.584545 40.7279365,151.267137 40.3328209,151.267137 C39.9334106,151.267137 39.6113055,151.584545 39.6113055,151.987739 C39.6113055,152.382355 39.9334106,152.708342 40.3328209,152.708342 C40.7279365,152.708342 41.0543363,152.382355 41.0543363,151.987739" id="Fill-60" fill="#FCE38A"></path>
                        <path d="M35.33375,151.987739 C35.33375,151.584545 35.011645,151.267137 34.6122347,151.267137 C34.2128243,151.267137 33.8907193,151.584545 33.895014,151.987739 C33.8907193,152.382355 34.2128243,152.708342 34.6122347,152.708342 C35.011645,152.708342 35.33375,152.382355 35.33375,151.987739" id="Fill-62" fill="#FCE38A"></path>
                        <path d="M20.6710972,14.6001064 C20.6710972,14.2012013 20.3446974,13.8795036 19.9495818,13.8795036 C19.5501715,13.8795036 19.2237717,14.2012013 19.2237717,14.6001064 C19.2237717,14.9990115 19.5501715,15.3207091 19.9495818,15.3207091 C20.3446974,15.3207091 20.6710972,14.9990115 20.6710972,14.6001064" id="Fill-64" fill="#FCE38A"></path>
                        <path d="M14.9505109,14.6001064 C14.9505109,14.2012013 14.6241111,13.8795036 14.2289955,13.8795036 C13.8295852,13.8795036 13.5074801,14.2012013 13.5074801,14.6001064 C13.5074801,14.9947222 13.8295852,15.3207091 14.2289955,15.3207091 C14.6241111,15.3207091 14.9505109,14.9990115 14.9505109,14.6001064" id="Fill-66" fill="#FCE38A"></path>
                        <path d="M9.22992462,14.6001064 C9.22992462,14.2012013 8.90781954,13.8795036 8.50840924,13.8795036 C8.10899893,13.8795036 7.78689385,14.2012013 7.79118858,14.6001064 C7.78689385,14.9990115 8.10899893,15.3207091 8.50840924,15.3207091 C8.90781954,15.3207091 9.22992462,14.9990115 9.22992462,14.6001064" id="Fill-68" fill="#FCE38A"></path>
                        <path d="M40.3289557,108.914571 C46.3501734,108.918857 51.2332864,104.041921 51.2332864,98.028319 L29.4246249,98.028319 C29.4246249,104.041921 34.307738,108.914571 40.3289557,108.914571" id="Fill-70" fill="#E7D183"></path>
                        <g id="Group-74" transform="translate(72.442472, 21.446511)">
                            <mask id="mask-6" fill="white">
                                <use xlink:href="#path-5"></use>
                            </mask>
                            <g id="Clip-73"></g>
                            <path d="M34.5429093,0.249388326 C15.658962,0.249388326 0.361117897,15.5321717 0.361117897,34.3965224 L68.7247008,34.3965224 C68.7247008,15.5321717 53.4268567,0.249388326 34.5429093,0.249388326" id="Fill-72" fill-opacity="0.1" fill="#000000" mask="url(#mask-6)"></path>
                        </g>
                        <g id="Group-77" transform="translate(75.250009, 0.000000)">
                            <mask id="mask-8" fill="white">
                                <use xlink:href="#path-7"></use>
                            </mask>
                            <g id="Clip-76"></g>
                            <path d="M10.9157882,3.71171298 C10.9157882,-2.30188856 6.03267518,-7.17882505 0.0114574873,-7.17882505 L0.0114574873,14.602251 C6.03267518,14.602251 10.9157882,9.72531453 10.9157882,3.71171298" id="Fill-75" fill="#E7D183" mask="url(#mask-8)"></path>
                        </g>
                        <path d="M18.1024165,124.890502 C17.8790903,124.890502 17.7030062,125.070653 17.7030062,125.289407 L17.7030062,125.293697 C17.7030062,125.51674 17.8790903,125.692602 18.1024165,125.692602 C18.321448,125.692602 18.5018268,125.51674 18.5018268,125.293697 L18.5018268,125.289407 C18.5018268,125.070653 18.321448,124.890502 18.1024165,124.890502" id="Fill-78" fill="#FD5959"></path>
                        <path d="M18.1024165,128.057294 C17.8790903,128.057294 17.7030062,128.237445 17.7030062,128.456199 C17.7030062,128.683532 17.8790903,128.859394 18.1024165,128.859394 C18.321448,128.859394 18.5018268,128.683532 18.5018268,128.456199 C18.5018268,128.237445 18.321448,128.057294 18.1024165,128.057294" id="Fill-80" fill="#FD5959"></path>
                        <path d="M18.1024165,131.224086 C17.8790903,131.224086 17.7030062,131.404237 17.7030062,131.622991 C17.7030062,131.846035 17.8790903,132.026185 18.1024165,132.026185 C18.321448,132.026185 18.5018268,131.846035 18.5018268,131.622991 C18.5018268,131.404237 18.321448,131.224086 18.1024165,131.224086" id="Fill-82" fill="#FD5959"></path>
                        <path d="M18.1024165,118.557348 C17.8790903,118.557348 17.7030062,118.737498 17.7030062,118.956253 C17.7030062,119.183586 17.8790903,119.359447 18.1024165,119.359447 C18.321448,119.359447 18.5018268,119.183586 18.5018268,118.956253 C18.5018268,118.737498 18.321448,118.557348 18.1024165,118.557348" id="Fill-84" fill="#FD5959"></path>
                        <path d="M18.1024165,121.723711 C17.8790903,121.723711 17.7030062,121.903861 17.7030062,122.122616 C17.7030062,122.349949 17.8790903,122.52581 18.1024165,122.52581 C18.321448,122.52581 18.5018268,122.349949 18.5018268,122.122616 C18.5018268,121.903861 18.321448,121.723711 18.1024165,121.723711" id="Fill-86" fill="#FD5959"></path>
                        <path d="M78.5997638,35.6026741 C78.3807323,35.6026741 78.2003535,35.7828248 78.2003535,36.0015792 L78.2003535,36.0015792 L78.2003535,36.0058685 C78.2003535,36.2246229 78.3807323,36.4047736 78.5997638,36.4047736 C78.8187952,36.4047736 78.9991741,36.2246229 78.9991741,36.0058685 L78.9991741,36.0015792 L78.9991741,36.0015792 C78.9991741,35.7828248 78.8187952,35.6026741 78.5997638,35.6026741" id="Fill-88" fill="#FD5959"></path>
                        <path d="M78.5997638,38.7694658 C78.3807323,38.7694658 78.2003535,38.9496165 78.2003535,39.1683709 C78.2003535,39.3914146 78.3807323,39.5715653 78.5997638,39.5715653 C78.8187952,39.5715653 78.9991741,39.3914146 78.9991741,39.1683709 C78.9991741,38.9496165 78.8187952,38.7694658 78.5997638,38.7694658" id="Fill-90" fill="#FD5959"></path>
                        <path d="M78.5997638,41.9362576 C78.3807323,41.9362576 78.2003535,42.1164083 78.2003535,42.3351627 C78.2003535,42.5582064 78.3807323,42.7383571 78.5997638,42.7383571 C78.8187952,42.7383571 78.9991741,42.5582064 78.9991741,42.3351627 C78.9991741,42.1164083 78.8187952,41.9362576 78.5997638,41.9362576" id="Fill-92" fill="#FD5959"></path>
                        <path d="M81.6193915,35.6026741 C81.4003601,35.6026741 81.2199812,35.7828248 81.2199812,36.0015792 L81.2199812,36.0015792 L81.2199812,36.0058685 C81.2199812,36.2246229 81.4003601,36.4047736 81.6193915,36.4047736 C81.8427177,36.4047736 82.0188019,36.2246229 82.0188019,36.0058685 L82.0188019,36.0015792 L82.0188019,36.0015792 C82.0188019,35.7828248 81.8427177,35.6026741 81.6193915,35.6026741" id="Fill-94" fill="#FD5959"></path>
                        <path d="M81.6193915,38.7694658 C81.4003601,38.7694658 81.2199812,38.9496165 81.2199812,39.1683709 C81.2199812,39.3914146 81.4003601,39.5715653 81.6193915,39.5715653 C81.8427177,39.5715653 82.0188019,39.3914146 82.0188019,39.1683709 C82.0188019,38.9496165 81.8427177,38.7694658 81.6193915,38.7694658" id="Fill-96" fill="#FD5959"></path>
                        <path d="M81.6193915,41.9362576 C81.4003601,41.9362576 81.2199812,42.1164083 81.2199812,42.3351627 C81.2199812,42.5582064 81.4003601,42.7383571 81.6193915,42.7383571 C81.8427177,42.7383571 82.0188019,42.5582064 82.0188019,42.3351627 C82.0188019,42.1164083 81.8427177,41.9362576 81.6193915,41.9362576" id="Fill-98" fill="#FD5959"></path>
                        <path d="M78.5997638,29.2695196 C78.3807323,29.2695196 78.2003535,29.4496702 78.2003535,29.6684246 C78.2003535,29.8914684 78.3807323,30.071619 78.5997638,30.071619 C78.8187952,30.071619 78.9991741,29.8914684 78.9991741,29.6684246 C78.9991741,29.4496702 78.8187952,29.2695196 78.5997638,29.2695196" id="Fill-100" fill="#FD5959"></path>
                        <path d="M78.5997638,32.4358824 C78.3807323,32.4358824 78.2003535,32.616033 78.2003535,32.8347875 C78.2003535,33.0578312 78.3807323,33.2379819 78.5997638,33.2379819 C78.8187952,33.2379819 78.9991741,33.0578312 78.9991741,32.8347875 C78.9991741,32.616033 78.8187952,32.4358824 78.5997638,32.4358824" id="Fill-102" fill="#FD5959"></path>
                        <path d="M81.6193915,30.0694744 C81.8427177,30.0694744 82.0188019,29.8893237 82.0188019,29.6705693 C82.0188019,29.4475256 81.8427177,29.2673749 81.6193915,29.2673749 C81.4003601,29.2673749 81.2199812,29.4475256 81.2199812,29.6705693 C81.2199812,29.8893237 81.4003601,30.0694744 81.6193915,30.0694744" id="Fill-104" fill="#FD5959"></path>
                        <path d="M81.6193915,32.4358824 C81.4003601,32.4358824 81.2199812,32.616033 81.2199812,32.8347875 C81.2199812,33.0578312 81.4003601,33.2379819 81.6193915,33.2379819 C81.8427177,33.2379819 82.0188019,33.0578312 82.0188019,32.8347875 C82.0188019,32.616033 81.8427177,32.4358824 81.6193915,32.4358824" id="Fill-106" fill="#FD5959"></path>
                        <path d="M69.5365857,35.6026741 C69.3132595,35.6026741 69.1371754,35.7828248 69.1371754,36.0015792 L69.1371754,36.0015792 L69.1371754,36.0058685 C69.1371754,36.2246229 69.3132595,36.4047736 69.5365857,36.4047736 C69.7556171,36.4047736 69.935996,36.2246229 69.935996,36.0058685 L69.935996,36.0015792 L69.935996,36.0015792 C69.935996,35.7828248 69.7556171,35.6026741 69.5365857,35.6026741" id="Fill-108" fill="#FD5959"></path>
                        <path d="M69.5365857,38.7694658 C69.3132595,38.7694658 69.1371754,38.9496165 69.1371754,39.1683709 C69.1371754,39.3914146 69.3132595,39.5715653 69.5365857,39.5715653 C69.7556171,39.5715653 69.935996,39.3914146 69.935996,39.1683709 C69.935996,38.9496165 69.7556171,38.7694658 69.5365857,38.7694658" id="Fill-110" fill="#FD5959"></path>
                        <path d="M69.5365857,41.9362576 C69.3132595,41.9362576 69.1371754,42.1164083 69.1371754,42.3351627 C69.1371754,42.5582064 69.3132595,42.7383571 69.5365857,42.7383571 C69.7556171,42.7383571 69.935996,42.5582064 69.935996,42.3351627 C69.935996,42.1164083 69.7556171,41.9362576 69.5365857,41.9362576" id="Fill-112" fill="#FD5959"></path>
                        <path d="M72.5583608,35.6026741 C72.3350346,35.6026741 72.1546558,35.7828248 72.1546558,36.0015792 L72.1546558,36.0015792 L72.1546558,36.0058685 C72.1546558,36.2246229 72.3350346,36.4047736 72.5583608,36.4047736 C72.7773923,36.4047736 72.9577711,36.2246229 72.9577711,36.0058685 L72.9577711,36.0015792 L72.9577711,36.0015792 C72.9577711,35.7828248 72.7773923,35.6026741 72.5583608,35.6026741" id="Fill-114" fill="#FD5959"></path>
                        <path d="M72.5583608,38.7694658 C72.3350346,38.7694658 72.1546558,38.9496165 72.1546558,39.1683709 C72.1546558,39.3914146 72.3350346,39.5715653 72.5583608,39.5715653 C72.7773923,39.5715653 72.9577711,39.3914146 72.9577711,39.1683709 C72.9577711,38.9496165 72.7773923,38.7694658 72.5583608,38.7694658" id="Fill-116" fill="#FD5959"></path>
                        <path d="M72.5583608,41.9362576 C72.3350346,41.9362576 72.1546558,42.1164083 72.1546558,42.3351627 C72.1546558,42.5582064 72.3350346,42.7383571 72.5583608,42.7383571 C72.7773923,42.7383571 72.9577711,42.5582064 72.9577711,42.3351627 C72.9577711,42.1164083 72.7773923,41.9362576 72.5583608,41.9362576" id="Fill-118" fill="#FD5959"></path>
                        <path d="M75.5779886,35.6026741 C75.3589572,35.6026741 75.1785783,35.7828248 75.1785783,36.0015792 L75.1785783,36.0015792 L75.1785783,36.0058685 C75.1785783,36.2246229 75.3589572,36.4047736 75.5779886,36.4047736 C75.7970201,36.4047736 75.9773989,36.2246229 75.9773989,36.0058685 L75.9773989,36.0015792 L75.9773989,36.0015792 C75.9773989,35.7828248 75.7970201,35.6026741 75.5779886,35.6026741" id="Fill-120" fill="#FD5959"></path>
                        <path d="M75.5779886,38.7694658 C75.3589572,38.7694658 75.1785783,38.9496165 75.1785783,39.1683709 C75.1785783,39.3914146 75.3589572,39.5715653 75.5779886,39.5715653 C75.7970201,39.5715653 75.9773989,39.3914146 75.9773989,39.1683709 C75.9773989,38.9496165 75.7970201,38.7694658 75.5779886,38.7694658" id="Fill-122" fill="#FD5959"></path>
                        <path d="M75.5779886,41.9362576 C75.3589572,41.9362576 75.1785783,42.1164083 75.1785783,42.3351627 C75.1785783,42.5582064 75.3589572,42.7383571 75.5779886,42.7383571 C75.7970201,42.7383571 75.9773989,42.5582064 75.9773989,42.3351627 C75.9773989,42.1164083 75.7970201,41.9362576 75.5779886,41.9362576" id="Fill-124" fill="#FD5959"></path>
                        <path d="M69.5365857,29.2695196 C69.3132595,29.2695196 69.1371754,29.4496702 69.1371754,29.6684246 C69.1371754,29.8914684 69.3132595,30.071619 69.5365857,30.071619 C69.7556171,30.071619 69.935996,29.8914684 69.935996,29.6684246 C69.935996,29.4496702 69.7556171,29.2695196 69.5365857,29.2695196" id="Fill-126" fill="#FD5959"></path>
                        <path d="M69.5365857,32.4358824 C69.3132595,32.4358824 69.1371754,32.616033 69.1371754,32.8347875 C69.1371754,33.0578312 69.3132595,33.2379819 69.5365857,33.2379819 C69.7556171,33.2379819 69.935996,33.0578312 69.935996,32.8347875 C69.935996,32.616033 69.7556171,32.4358824 69.5365857,32.4358824" id="Fill-128" fill="#FD5959"></path>
                        <path d="M72.5583608,29.2695196 C72.3350346,29.2695196 72.1546558,29.4496702 72.1546558,29.6684246 C72.1546558,29.8914684 72.3350346,30.071619 72.5583608,30.071619 C72.7773923,30.071619 72.9577711,29.8914684 72.9577711,29.6684246 C72.9577711,29.4496702 72.7773923,29.2695196 72.5583608,29.2695196" id="Fill-130" fill="#FD5959"></path>
                        <path d="M72.5583608,32.4358824 C72.3350346,32.4358824 72.1546558,32.616033 72.1546558,32.8347875 C72.1546558,33.0578312 72.3350346,33.2379819 72.5583608,33.2379819 C72.7773923,33.2379819 72.9577711,33.0578312 72.9577711,32.8347875 C72.9577711,32.616033 72.7773923,32.4358824 72.5583608,32.4358824" id="Fill-132" fill="#FD5959"></path>
                        <path d="M75.5779886,29.2695196 C75.3589572,29.2695196 75.1785783,29.4496702 75.1785783,29.6684246 C75.1785783,29.8914684 75.3589572,30.071619 75.5779886,30.071619 C75.7970201,30.071619 75.9773989,29.8914684 75.9773989,29.6684246 C75.9773989,29.4496702 75.7970201,29.2695196 75.5779886,29.2695196" id="Fill-134" fill="#FD5959"></path>
                        <path d="M75.5779886,32.4358824 C75.3589572,32.4358824 75.1785783,32.616033 75.1785783,32.8347875 C75.1785783,33.0578312 75.3589572,33.2379819 75.5779886,33.2379819 C75.7970201,33.2379819 75.9773989,33.0578312 75.9773989,32.8347875 C75.9773989,32.616033 75.7970201,32.4358824 75.5779886,32.4358824" id="Fill-136" fill="#FD5959"></path>
                        <path d="M110.206432,131.224086 C110.206432,132.111971 109.484917,132.832574 108.595907,132.832574 C107.706897,132.832574 106.985382,132.111971 106.985382,131.224086 C106.985382,130.3362 107.706897,129.615598 108.595907,129.615598 C109.484917,129.615598 110.206432,130.3362 110.206432,131.224086" id="Fill-138" fill="#FD5959"></path>
                        <path d="M47.932783,19.316623 C47.932783,20.5047596 46.9750572,21.461274 45.7854158,21.461274 C44.5957743,21.461274 43.6380486,20.5047596 43.6380486,19.316623 C43.6380486,18.1284863 44.5957743,17.1719719 45.7854158,17.1719719 C46.9750572,17.1719719 47.932783,18.1284863 47.932783,19.316623" id="Fill-140" fill="#364F6B"></path>
                        <path d="M9.87370532,163.448326 C9.87370532,163.800049 9.58595811,164.091721 9.22949515,164.091721 C8.87303219,164.091721 8.58528498,163.800049 8.58528498,163.448326 C8.58528498,163.088024 8.87303219,162.80493 9.22949515,162.80493 C9.58595811,162.80493 9.87370532,163.088024 9.87370532,163.448326" id="Fill-142" fill="#FCE38A"></path>
                        <path d="M104.324364,32.1051772 C104.324364,32.9930627 103.602849,33.7136655 102.713839,33.7136655 C101.824829,33.7136655 101.103313,32.9930627 101.103313,32.1051772 C101.103313,31.2172916 101.824829,30.4966889 102.713839,30.4966889 C103.602849,30.4966889 104.324364,31.2172916 104.324364,32.1051772" id="Fill-144" fill="#FCE38A"></path>
                        <polygon id="Fill-146" fill="#E7D183" points="22.5564856 35.4182341 24.9529474 33.0248035 41.3974856 49.4485413 39.0010238 51.8419719"></polygon>
                        <g id="Group-150" transform="translate(0.000000, 132.401070)">
                            <mask id="mask-10" fill="white">
                                <use xlink:href="#path-9"></use>
                            </mask>
                            <g id="Clip-149"></g>
                            <polygon id="Fill-148" fill="#364F6B" mask="url(#mask-10)" points="8.77683014 0.0501848346 11.173292 2.4393261 -5.27124622 18.8673532 -7.66770804 16.4696333"></polygon>
                        </g>
                        <g id="Group-153" transform="translate(0.000000, 127.194424)">
                            <mask id="mask-12" fill="white">
                                <use xlink:href="#path-11"></use>
                            </mask>
                            <g id="Clip-152"></g>
                            <polygon id="Fill-151" fill-opacity="0.1" fill="#000000" mask="url(#mask-12)" points="2.87371765 51.0232557 -3.62421556 44.5292523 40.9637174 0.00200719166 47.4573559 6.49601057"></polygon>
                        </g>
                        <polygon id="Fill-154" fill="#E7D183" points="96.0071814 65.3408345 97.9398119 65.3408345 97.9398119 83.2315136 96.0071814 83.2315136"></polygon>
                        <polygon id="Fill-156" fill="#364F6B" points="93.4844544 109.840199 93.8538016 110.209079 75.6312433 128.404299 75.2618962 128.035419"></polygon>
                        <polygon id="Fill-158" fill="#364F6B" points="103.355472 6.71293766 103.355472 7.47214413 80.7136321 7.47214413 80.7136321 6.71293766"></polygon>
                    </g>
                </g>
            </g>
        </g>
    </g>
</svg>